<svg xmlns="http://www.w3.org/2000/svg" version="1.1" xmlns:xlink="http://www.w3.org/1999/xlink" width="512" height="512" x="0" y="0" viewBox="0 0 512 512" style="enable-background:new 0 0 512 512" xml:space="preserve" class=""><g><g fill-rule="evenodd" clip-rule="evenodd"><path fill="#fe646f" d="m337.853 187.328-54.668 45.335 29.318 68.07c.942 2.187 3.948 2.41 5.203.387l18.925-30.497 35.162 7.201c2.335.477 4.236-1.857 3.293-4.047z" opacity="1" data-original="#fe646f" class=""></path><path fill="#fd4755" d="m337.853 187.328-7.228 5.994 34.652 80.455a2.902 2.902 0 0 1-.174 2.677l6.691 1.37c2.335.477 4.236-1.857 3.293-4.047zm-27.139 109.251 17.214-27.739 8.704 1.783-18.925 30.497c-1.255 2.022-4.262 1.799-5.203-.388z" opacity="1" data-original="#fd4755"></path><path fill="#fe646f" d="m257.202 229.146-39.306 84.425c-1.005 2.158-4.016 2.295-5.213.237l-18.033-31.033-35.357 6.178c-2.348.41-4.181-1.98-3.174-4.141l38.876-83.501z" opacity="1" data-original="#fe646f" class=""></path><path fill="#fd4755" d="m257.202 229.146-39.306 84.425c-1.005 2.158-4.016 2.295-5.212.236l-18.033-31.033-35.357 6.178c-2.348.41-4.181-1.98-3.174-4.141l2.39-5.133 31.176-5.447 18.033 31.033c1.196 2.058 4.208 1.922 5.212-.236l36.87-79.192z" opacity="1" data-original="#fd4755"></path><path fill="#ffe177" d="M280.524 21.061c23.503 17.593 18.173 15.653 47.486 17.283 11.259.626 20.404 8.299 22.975 19.278 2.429 10.369 3.618 23.444 11.535 30.875l13.732 12.888c8.222 7.717 10.295 19.473 5.208 29.536-13.244 26.201-12.259 20.615-8.775 49.766 1.338 11.197-4.63 21.534-14.996 25.974-26.987 11.558-22.642 7.912-38.711 32.482-6.172 9.437-17.389 13.52-28.183 10.258-28.103-8.493-22.431-8.493-50.534 0-10.794 3.262-22.011-.82-28.183-10.258-16.069-24.57-11.723-20.924-38.711-32.482-10.366-4.439-16.334-14.777-14.996-25.974 3.484-29.151 4.469-23.565-8.775-49.766-5.087-10.063-3.014-21.819 5.208-29.536 21.407-20.091 18.571-15.179 25.267-43.763 2.572-10.979 11.716-18.652 22.975-19.278 29.312-1.631 23.982.309 47.486-17.283 9.027-6.757 20.964-6.757 29.992 0z" opacity="1" data-original="#ffe177" class=""></path><path fill="#ffd064" d="M280.524 21.061c23.503 17.593 18.173 15.653 47.486 17.283 11.259.626 20.404 8.299 22.976 19.278 2.429 10.369 3.617 23.444 11.535 30.875l13.732 12.888c8.222 7.717 10.295 19.473 5.207 29.536-13.244 26.201-12.259 20.615-8.775 49.766 1.338 11.197-4.63 21.535-14.996 25.974-26.987 11.558-22.642 7.912-38.711 32.482-5.99 9.159-16.733 13.274-27.229 10.526 5.75-1.544 10.874-5.173 14.375-10.526 16.069-24.571 11.723-20.924 38.711-32.482 10.366-4.439 16.334-14.777 14.996-25.974-3.484-29.151-4.469-23.565 8.775-49.766 5.087-10.064 3.014-21.819-5.208-29.536l-13.732-12.888c-7.917-7.431-9.106-20.506-11.535-30.875-2.572-10.979-11.716-18.652-22.976-19.278-29.313-1.631-23.982.309-47.486-17.283a25.411 25.411 0 0 0-8.569-4.207c7.227-1.966 15.051-.564 21.424 4.207zm-21.423 222.792c-4.293.977-9.829 2.826-18.84 5.549-4.671 1.412-9.421 1.447-13.808.268.319-.083.637-.173.955-.268 19.091-5.771 22.597-7.619 31.693-5.549z" opacity="1" data-original="#ffd064"></path><circle cx="265.528" cy="133.252" r="70.038" fill="#eceff1" opacity="1" data-original="#eceff1" class=""></circle><path fill="#d1d1d6" d="M265.528 63.213c1.884 0 3.75.076 5.597.222-36.064 2.852-64.442 33.019-64.442 69.816s28.378 66.965 64.442 69.816a70.982 70.982 0 0 1-5.597.223c-38.681 0-70.039-31.357-70.039-70.039 0-38.68 31.358-70.038 70.039-70.038z" opacity="1" data-original="#d1d1d6"></path><path fill="#f6dccd" d="m60.57 391.508 72.088-41.765c13.529-7.838 27.286-13.396 42.156-8.572 16.58 5.376 43.653 16.922 71.262 21.901 10.248 3.322 16.637 13.584 13.849 23.989-2.788 10.407-11.581 15.772-23.989 13.853l9.651 1.545c11.06 1.769 21.217.255 30.897-5.382l69.308-40.368c53.875-31.378 61.789 16.895 43.876 27.923L263.89 462.081c-11.568 7.122-24.226 8.784-37.349 5.266l-91.23-24.445-33.786 19.506c-6.496 3.75-14.853 1.512-18.604-4.985L55.6 410.102c-3.745-6.49-1.514-14.837 4.97-18.594z" opacity="1" data-original="#f6dccd"></path><path fill="#f1cbbc" d="M258.282 391.379c-3.852 7.529-11.79 11.169-22.345 9.536-14.944-3.952-29.871-8.003-44.803-12.004a7.497 7.497 0 0 1 3.881-14.483zM60.569 391.508l72.088-41.765c13.529-7.838 27.286-13.396 42.156-8.572 8.87 2.876 20.745 7.518 34.097 11.976L69.267 433.771l-13.665-23.669c-3.747-6.49-1.517-14.837 4.967-18.594z" opacity="1" data-original="#f1cbbc"></path><path fill="#d1d1d6" d="m67.758 368.761 57.171 101.018c2.764 4.884 1.03 11.142-3.855 13.907l-19.447 11.006c-4.884 2.765-11.143 1.03-13.907-3.854L30.549 389.819c-2.764-4.884-1.029-11.142 3.855-13.907l19.446-11.005c4.885-2.765 11.143-1.03 13.908 3.854z" opacity="1" data-original="#d1d1d6"></path><path fill="#b1b1b5" d="m97.826 438.167 10.119 17.88 10.007 17.681c2.759 4.875 1.037 11.117-3.825 13.89l6.947-3.932c4.884-2.764 6.619-9.022 3.854-13.907l-10.04-17.741-20.16-35.622-20.183-35.662-6.787-11.993c-2.394-4.231-7.411-6.098-11.885-4.725l11.75 20.764 20.161 35.622 10.04 17.741z" opacity="1" data-original="#b1b1b5"></path><path fill="#8ac9fe" d="M437.985 17.009 398.291 63.76c-1.593 1.876-.261 4.749 2.198 4.749h18.487v99.632c0 3.169 2.596 5.766 5.767 5.766h30.879c3.169 0 5.766-2.591 5.766-5.766V68.509h18.488c2.459 0 3.79-2.873 2.197-4.749L442.38 17.009a2.884 2.884 0 0 0-4.395 0z" opacity="1" data-original="#8ac9fe"></path><path fill="#60b7ff" d="m437.985 17.009-4.259 5.016 35.435 41.735c1.593 1.876.262 4.749-2.197 4.749h12.913c2.459 0 3.79-2.873 2.197-4.749L442.38 17.009a2.884 2.884 0 0 0-4.395 0zm4.724 156.898c3.169 0 5.766-2.591 5.766-5.766V68.509h12.913v99.632c0 3.175-2.597 5.766-5.766 5.766z" opacity="1" data-original="#60b7ff"></path><path fill="#8ac9fe" d="M88.676 17.009 48.983 63.76c-1.593 1.876-.261 4.749 2.198 4.749h18.487v99.632c0 3.169 2.596 5.766 5.766 5.766h30.88c3.169 0 5.766-2.591 5.766-5.766V68.509h18.488c2.459 0 3.79-2.873 2.197-4.749L93.071 17.009a2.884 2.884 0 0 0-4.395 0z" opacity="1" data-original="#8ac9fe"></path><path fill="#60b7ff" d="m88.676 17.009-4.259 5.016 35.435 41.735c1.593 1.876.262 4.749-2.197 4.749h12.913c2.459 0 3.79-2.873 2.197-4.749L93.071 17.009a2.884 2.884 0 0 0-4.395 0zm4.725 156.898c3.169 0 5.766-2.591 5.766-5.766V68.509h12.913v99.632c0 3.175-2.597 5.766-5.766 5.766z" opacity="1" data-original="#60b7ff"></path><path fill="#242222" d="m90.87 26.787 28.637 33.729h-7.432a8.001 8.001 0 0 0-8.002 8.002v97.395h-26.41V68.518a8 8 0 0 0-7.997-8.002h-7.432zm3.897-4.59-.014.014zm-43.59 54.318h10.487v91.634c0 7.592 6.176 13.768 13.768 13.768h30.877c7.592 0 13.768-6.176 13.768-13.768V76.515h10.487c4.292 0 8.077-2.419 9.88-6.312 1.798-3.893 1.196-8.345-1.586-11.612L99.163 11.838a10.862 10.862 0 0 0-8.293-3.836 10.856 10.856 0 0 0-8.294 3.836h-.004L42.878 58.591c-2.777 3.267-3.384 7.719-1.581 11.612s5.587 6.312 9.88 6.312zm410.209-15.999a8.001 8.001 0 0 0-8.002 8.002v97.395h-26.41V68.518a8.001 8.001 0 0 0-8.002-8.002h-7.428l28.627-33.729 28.641 33.729zm-17.312-38.319c0 .005-.009.01-.009.014zm44.089 36.394-39.689-46.753a10.881 10.881 0 0 0-8.303-3.836 10.86 10.86 0 0 0-8.289 3.836l-39.698 46.753c-2.773 3.267-3.38 7.719-1.582 11.612 1.803 3.893 5.592 6.312 9.88 6.312h10.492v91.634c0 7.592 6.171 13.768 13.758 13.768h30.882c7.587 0 13.768-6.176 13.768-13.768V76.515h10.492c4.288 0 8.072-2.419 9.88-6.312 1.798-3.893 1.191-8.345-1.591-11.612zm-261.222 82.286c-3.125-3.121-3.125-8.185 0-11.311 3.121-3.125 8.185-3.125 11.311 0l13.819 13.815 41.002-37.212c3.271-2.97 8.331-2.721 11.301.55s2.721 8.326-.551 11.301l-46.645 42.334a7.991 7.991 0 0 1-5.375 2.071c-2.052 0-4.1-.781-5.658-2.339zm38.582-69.657c-34.21 0-62.041 27.832-62.041 62.041 0 34.21 27.832 62.037 62.041 62.037 34.21 0 62.041-27.827 62.041-62.037S299.733 71.22 265.523 71.22zm0 140.081c43.03 0 78.04-35.01 78.04-78.04s-35.01-78.04-78.04-78.04-78.04 35.01-78.04 78.04 35.01 78.04 78.04 78.04zM160.272 107.227c-5.643 5.3-7.037 13.184-3.544 20.094 1.219 2.41 2.316 4.547 3.299 6.467 9.489 18.503 9.757 20.023 7.169 40.653-.268 2.141-.57 4.523-.89 7.206-.918 7.686 3.088 14.619 10.205 17.669 2.481 1.059 4.697 1.996 6.684 2.834 19.162 8.072 20.343 9.065 31.621 26.533 1.172 1.812 2.476 3.831 3.954 6.091 4.236 6.481 11.763 9.221 19.171 6.98 2.584-.781 4.881-1.492 6.943-2.127 9.936-3.064 15.288-4.599 20.64-4.599s10.703 1.534 20.64 4.599c2.062.635 4.354 1.346 6.943 2.127 7.409 2.236 14.94-.499 19.171-6.98 1.478-2.259 2.777-4.279 3.949-6.091 11.278-17.467 12.468-18.456 31.621-26.533 1.986-.838 4.208-1.77 6.689-2.834 7.121-3.05 11.117-9.983 10.2-17.669-.32-2.683-.621-5.065-.89-7.211-2.579-20.626-2.311-22.146 7.169-40.649a804.065 804.065 0 0 0 3.299-6.467c3.493-6.91 2.099-14.794-3.54-20.094-1.972-1.85-3.728-3.483-5.309-4.952-15.25-14.14-16.017-15.476-20.64-35.744-.48-2.104-1.021-4.448-1.633-7.074-1.765-7.54-7.898-12.69-15.627-13.118-2.702-.151-5.098-.268-7.253-.377-20.767-1.035-22.217-1.563-38.789-14.116a1041.372 1041.372 0 0 0-5.799-4.373c-6.194-4.641-14.205-4.641-20.404 0-2.161 1.615-4.076 3.069-5.794 4.373-16.573 12.553-18.023 13.081-38.789 14.116-2.156.108-4.556.226-7.253.377-7.729.428-13.862 5.578-15.627 13.118-.617 2.627-1.149 4.971-1.633 7.074-4.622 20.268-5.394 21.605-20.635 35.744-1.585 1.47-3.35 3.104-5.318 4.953zm177.963 155.568a7.988 7.988 0 0 0-8.402 3.62l-13.819 22.268-13.151-30.519c9.122-1.327 17.463-6.458 22.8-14.629 1.502-2.288 2.819-4.335 4.01-6.171 4.74-7.352 7.131-11.042 9.701-13.203 1.13-.946 2.542-1.802 4.439-2.753l20.089 46.645zm-123.508 38.624-13.165-22.654a8.004 8.004 0 0 0-8.294-3.86l-25.813 4.509 25.267-54.27c2.222 2.259 4.556 5.874 8.651 12.214 1.186 1.841 2.509 3.883 4.001 6.176 6.608 10.096 17.778 15.575 29.357 14.921zm-72.275-166.878c-6.674-13.198-3.911-28.862 6.872-38.977a1211 1211 0 0 1 5.38-5.018c6.415-5.949 9.635-8.938 11.315-11.852 1.68-2.909 2.659-7.192 4.603-15.726.49-2.127 1.031-4.5 1.652-7.164 3.37-14.394 15.556-24.622 30.322-25.441 2.73-.151 5.159-.273 7.343-.381 8.741-.433 13.127-.654 16.286-1.803 3.163-1.153 6.665-3.803 13.636-9.089 1.742-1.318 3.681-2.787 5.87-4.424 11.838-8.863 27.742-8.863 39.58 0a988.187 988.187 0 0 1 5.874 4.429c6.971 5.281 10.468 7.931 13.641 9.084 3.158 1.149 7.54 1.37 16.276 1.803 2.184.108 4.622.23 7.352.381 14.761.819 26.942 11.047 30.322 25.441.617 2.664 1.158 5.036 1.647 7.164 1.939 8.534 2.923 12.817 4.603 15.726 1.676 2.918 4.9 5.903 11.315 11.852 1.6 1.487 3.384 3.144 5.38 5.018 10.784 10.115 13.542 25.78 6.872 38.977a771.675 771.675 0 0 1-3.342 6.548c-3.987 7.785-5.997 11.697-6.576 15.01-.593 3.309-.043 7.667 1.05 16.347.268 2.17.579 4.589.899 7.305 1.751 14.676-6.199 28.453-19.792 34.275-.81.348-1.586.678-2.349.998l26.18 60.775a8.004 8.004 0 0 1-8.961 11.004l-35.217-7.216-18.959 30.552a8.003 8.003 0 0 1-6.792 3.779c-.198 0-.4-.009-.598-.019a8.004 8.004 0 0 1-6.75-4.81L284.45 255.84c-1.05-.325-2.057-.631-3.008-.927-8.359-2.579-12.553-3.874-15.919-3.874-2.791 0-6.166.894-12.012 2.673l.885.414-31.635 67.939a8.013 8.013 0 0 1-6.886 4.622h-.367a8.004 8.004 0 0 1-6.915-3.982l-18.065-31.084-35.419 6.185a7.966 7.966 0 0 1-7.724-3.008 8 8 0 0 1-.904-8.247l32.115-68.979c-.522-.221-1.055-.447-1.615-.682a1326.83 1326.83 0 0 1-6.768-2.866c-13.594-5.822-21.548-19.599-19.793-34.275.325-2.716.626-5.131.899-7.3 1.092-8.684 1.638-13.043 1.05-16.352-.584-3.314-2.584-7.22-6.58-15.006-.997-1.946-2.103-4.111-3.337-6.55zM62.52 389.748a6.95 6.95 0 0 1-5.865 7.879 6.947 6.947 0 0 1-2.01-13.749c3.794-.545 7.32 2.081 7.875 5.87zm322.944-11.899-125.787 77.452c-9.527 5.869-19.985 7.328-31.089 4.349l-91.238-24.443a8.024 8.024 0 0 0-6.072.8l-12.252 7.074-32.482-57.391 50.086-29.004c11.193-6.477 23.261-11.918 35.688-7.889 4.185 1.36 9.028 3.111 14.634 5.14 16.149 5.841 36.205 13.09 57.09 16.921 6.232 2.25 9.72 8.251 8.138 14.158-1.68 6.279-6.387 9.023-13.97 8.152-10.096-2.08-19.731-4.82-29.922-7.729-4.876-1.403-9.917-2.843-15.109-4.232-4.269-1.139-8.656 1.388-9.8 5.658-1.144 4.269 1.389 8.651 5.658 9.8 5.065 1.351 10.045 2.772 14.86 4.152 10.614 3.031 20.64 5.893 31.465 8.11.052.009.108.009.165.019.052.009.099.033.155.033l8.623 1.407c13.33 2.132 25.168.052 36.186-6.368l69.314-40.371c18.691-10.887 33.471-12.341 38.582-3.808 3.436 5.758 1.948 15.012-2.923 18.01zm-268.325 98.859c1.04-.579 1.421-1.958.833-2.998L60.797 372.681a2.234 2.234 0 0 0-3.008-.833l-19.449 11c-1.04.593-1.421 1.972-.833 3.013L94.686 486.89c.588 1.04 1.963 1.421 3.003.833zM341.756 349.82l-69.314 40.371a38.271 38.271 0 0 1-6.142 2.9 31.817 31.817 0 0 0 1.332-3.93c3.798-14.182-4.594-28.971-19.11-33.669a8.84 8.84 0 0 0-1.05-.273c-19.769-3.558-39.345-10.638-55.08-16.328-5.502-1.991-10.704-3.874-15.142-5.309-18.432-5.982-34.93 1.327-48.636 9.258L78.66 371.768l-3.94-6.971c-4.947-8.736-16.074-11.819-24.81-6.877l-19.448 11.01c-8.736 4.937-11.824 16.069-6.877 24.81l57.174 101.029c3.347 5.912 9.522 9.23 15.876 9.23 3.036 0 6.11-.758 8.934-2.349l19.449-11.009c8.741-4.952 11.824-16.079 6.877-24.81l-4.989-8.821 9.503-5.488 88.037 23.586c5.065 1.36 10.101 2.033 15.053 2.033 10.026 0 19.712-2.763 28.566-8.213l125.791-77.456c12.28-7.559 16.215-26.561 8.247-39.853-3.851-6.431-19.567-25.55-60.347-1.799z" opacity="1" data-original="#242222" class=""></path></g></g></svg>