<svg xmlns="http://www.w3.org/2000/svg" version="1.1" xmlns:xlink="http://www.w3.org/1999/xlink" width="512" height="512" x="0" y="0" viewBox="0 0 256 256" style="enable-background:new 0 0 512 512" xml:space="preserve" class=""><g><path fill="#a54af4" d="M198.289 83.029c0-8.284-6.716-15-15-15H58.766c-8.284 0-15 6.716-15 15v82.23c0 8.284 6.716 15 15 15h124.523c8.284 0 15-6.716 15-15z" opacity="1" data-original="#a54af4"></path><path fill="#b171f4" d="M49.766 159.638a2 2 0 0 1-2-2v-59a2 2 0 0 1 4 0v59a2 2 0 0 1-2 2zm0-67a2 2 0 0 1-2-2v-.576a2 2 0 0 1 4 0v.576a2 2 0 0 1-2 2z" opacity="1" data-original="#b171f4"></path><path fill="#893add" d="M187.642 68.676c.418 1.378.647 2.839.647 4.353v82.23c0 8.284-6.716 15-15 15H48.766c-1.515 0-2.975-.229-4.353-.647 1.866 6.16 7.584 10.647 14.353 10.647h124.523c8.284 0 15-6.716 15-15v-82.23c0-6.77-4.486-12.487-10.647-14.353z" opacity="1" data-original="#893add"></path><path fill="#6c2bc1" d="M191.086 70.232a14.903 14.903 0 0 1 2.203 7.797v82.23c0 8.284-6.716 15-15 15H53.766c-2.86 0-5.523-.815-7.797-2.203 2.634 4.314 7.372 7.203 12.797 7.203h124.523c8.284 0 15-6.716 15-15v-82.23c0-5.425-2.889-10.163-7.203-12.797z" opacity="1" data-original="#6c2bc1"></path><path fill="#414042" d="M158.442 68.029c-15.194 0-27.943-10.452-31.46-24.557h-11.91c-3.517 14.105-16.266 24.557-31.46 24.557z" opacity="1" data-original="#414042"></path><circle cx="121.027" cy="123.85" r="33.788" fill="#6c2bc1" opacity="1" data-original="#6c2bc1"></circle><path fill="#ffc91d" d="M109.236 140.765v-33.831c0-2.25 2.493-3.605 4.382-2.381l26.097 16.915c1.726 1.119 1.726 3.644 0 4.763l-26.097 16.915c-1.889 1.224-4.382-.131-4.382-2.381z" opacity="1" data-original="#ffc91d"></path><path fill="#ffa91a" d="m139.714 121.468-3.73-2.417c-.059.842-.471 1.663-1.27 2.18l-25.478 16.514v3.019c0 2.25 2.493 3.605 4.382 2.381l26.097-16.915c1.725-1.117 1.725-3.643-.001-4.762z" opacity="1" data-original="#ffa91a"></path><path fill="#58595b" d="M198.289 98.987v49.111l27.176 10.805V88.181z" opacity="1" data-original="#58595b"></path><path fill="#414042" d="m198.289 148.098 27.176 10.805v-5l-27.176-10.805z" opacity="1" data-original="#414042"></path><path fill="#808285" d="M83.613 3.176c-17.909 0-32.426 14.518-32.426 32.426s14.518 32.426 32.426 32.426 32.426-14.518 32.426-32.426S101.521 3.176 83.613 3.176z" opacity="1" data-original="#808285"></path><path fill="#58595b" d="M103.901 10.315a32.279 32.279 0 0 1 7.139 20.288c0 17.909-14.518 32.426-32.426 32.426a32.283 32.283 0 0 1-20.288-7.139c5.943 7.398 15.06 12.139 25.288 12.139 17.909 0 32.426-14.518 32.426-32.426-.001-10.229-4.741-19.345-12.139-25.288z" opacity="1" data-original="#58595b"></path><path fill="#d1d3d4" d="M83.613 19.133c-9.096 0-16.47 7.374-16.47 16.47s7.374 16.47 16.47 16.47 16.47-7.374 16.47-16.47-7.374-16.47-16.47-16.47z" opacity="1" data-original="#d1d3d4"></path><path fill="#808285" d="M158.442 3.176c-17.909 0-32.426 14.518-32.426 32.426s14.518 32.426 32.426 32.426 32.426-14.518 32.426-32.426-14.517-32.426-32.426-32.426z" opacity="1" data-original="#808285"></path><path fill="#58595b" d="M178.73 10.315a32.279 32.279 0 0 1 7.139 20.288c0 17.909-14.518 32.426-32.426 32.426a32.283 32.283 0 0 1-20.288-7.139c5.943 7.398 15.06 12.139 25.288 12.139 17.909 0 32.426-14.518 32.426-32.426-.001-10.229-4.741-19.345-12.139-25.288z" opacity="1" data-original="#58595b"></path><path fill="#d1d3d4" d="M158.442 19.133c-9.096 0-16.47 7.374-16.47 16.47s7.374 16.47 16.47 16.47 16.47-7.374 16.47-16.47-7.374-16.47-16.47-16.47z" opacity="1" data-original="#d1d3d4"></path><path fill="#939598" d="M236.719 158.991h-11.254v-70.81h11.254a5 5 0 0 1 5 5v60.81a5 5 0 0 1-5 5z" opacity="1" data-original="#939598"></path><path fill="#808285" d="M236.719 88.181v60.81a5 5 0 0 1-5 5h-6.254v5h11.254a5 5 0 0 0 5-5v-60.81a5 5 0 0 0-5-5z" opacity="1" data-original="#808285"></path><path fill="#58595b" d="M26.371 102.066h17.381v44.155H26.371z" opacity="1" data-original="#58595b"></path><path fill="#414042" d="M26.371 141.221h17.381v5H26.371z" opacity="1" data-original="#414042"></path><path fill="#939598" d="M20.545 156.118a5.826 5.826 0 0 1-5.826-5.826V97.996a5.826 5.826 0 1 1 11.652 0v52.296a5.826 5.826 0 0 1-5.826 5.826z" opacity="1" data-original="#939598"></path><path fill="#808285" d="M21.315 92.226c.033.252.057.508.057.769v52.296a5.826 5.826 0 0 1-5.826 5.826c-.262 0-.517-.023-.769-.057a5.823 5.823 0 0 0 11.595-.769V97.996a5.824 5.824 0 0 0-5.057-5.77z" opacity="1" data-original="#808285"></path><path fill="#ffc91d" d="M67.582 146.221c-29.39 0-53.301 23.911-53.301 53.301s23.911 53.301 53.301 53.301 53.301-23.911 53.301-53.301-23.91-53.301-53.301-53.301z" opacity="1" data-original="#ffc91d"></path><circle cx="67.582" cy="199.523" r="30.275" fill="#58595b" opacity="1" data-original="#58595b"></circle><circle cx="67.582" cy="199.523" r="23.833" fill="#414042" opacity="1" data-original="#414042"></circle><path fill="#ffa91a" d="M67.582 150.288c-27.191 0-49.234 22.043-49.234 49.234s22.043 49.234 49.234 49.234 49.234-22.043 49.234-49.234-22.043-49.234-49.234-49.234zm-17.266 71.748c-5.196 3-11.841 1.22-14.841-3.977-3-5.196-1.22-11.841 3.977-14.841 5.196-3 11.841-1.22 14.841 3.977 2.999 5.197 1.219 11.841-3.977 14.841zm3.976-30.186c-3 5.196-9.645 6.977-14.841 3.977s-6.977-9.645-3.977-14.841 9.645-6.977 14.841-3.977c5.197 3 6.977 9.644 3.977 14.841zm13.29 44.747c-6 0-10.864-4.864-10.864-10.864s4.864-10.864 10.864-10.864 10.864 4.864 10.864 10.864-4.864 10.864-10.864 10.864zm0-52.42c-6 0-10.864-4.864-10.864-10.864s4.864-10.864 10.864-10.864 10.864 4.864 10.864 10.864-4.864 10.864-10.864 10.864zm32.107 33.883c-3 5.196-9.645 6.977-14.841 3.977s-6.977-9.645-3.977-14.841 9.645-6.977 14.841-3.977c5.197 3 6.977 9.644 3.977 14.841zm-3.976-22.234c-5.196 3-11.841 1.22-14.841-3.977-3-5.196-1.22-11.841 3.977-14.841 5.196-3 11.841-1.22 14.841 3.977 2.999 5.197 1.219 11.841-3.977 14.841z" opacity="1" data-original="#ffa91a"></path><path fill="#f79219" d="M99.797 162.308c7.482 8.635 12.02 19.892 12.02 32.214 0 27.191-22.043 49.234-49.234 49.234-12.323 0-23.579-4.538-32.214-12.02 9.028 10.419 22.346 17.02 37.214 17.02 27.191 0 49.234-22.043 49.234-49.234-.001-14.868-6.601-28.187-17.02-37.214z" opacity="1" data-original="#f79219"></path><circle cx="67.582" cy="199.523" r="5.22" fill="#414042" opacity="1" data-original="#414042"></circle><path fill="#808285" d="M109.901 200.835v46.989a5 5 0 0 0 5 5h77.318a5 5 0 0 0 5-5v-46.989z" opacity="1" data-original="#808285"></path><path fill="#ffffff" d="M179.485 220h-51.85a2 2 0 0 1 0-4h51.85a2 2 0 0 1 0 4zM179.485 235h-51.85a2 2 0 0 1 0-4h51.85a2 2 0 0 1 0 4z" opacity="1" data-original="#ffffff"></path><path fill="#58595b" d="M192.219 200.835v41.989a5 5 0 0 1-5 5h-77.318a5 5 0 0 0 5 5h77.318a5 5 0 0 0 5-5v-46.989z" opacity="1" data-original="#58595b"></path><path fill="#e6e7e8" d="M195.219 189.053h-85.318v11.793h87.318v-9.793a2 2 0 0 0-2-2z" opacity="1" data-original="#e6e7e8"></path><path fill="#d1d3d4" d="M197.219 191.053a2 2 0 0 0-2-2h-5a2 2 0 0 1 2 2v9.793h5z" opacity="1" data-original="#d1d3d4"></path><path fill="#414042" d="M142.659 200.846h14.275l8.298-11.793h-14.274zM171.315 200.846h14.275l8.298-11.793h-14.274zM114.003 200.846h14.275l8.298-11.793h-14.274z" opacity="1" data-original="#414042"></path><path fill="#e6e7e8" d="m189.395 155.597-80.479 21.564a2 2 0 0 0-1.414 2.449l2.535 9.459 82.411-22.082a2 2 0 0 0 1.414-2.449l-2.017-7.527a2 2 0 0 0-2.45-1.414z" opacity="1" data-original="#e6e7e8"></path><path fill="#d1d3d4" d="M191.844 157.011a2 2 0 0 0-2.449-1.414l-4.83 1.294a2 2 0 0 1 2.449 1.414l2.017 7.528a1.999 1.999 0 0 1-1.414 2.449l4.83-1.294a2 2 0 0 0 1.414-2.449z" opacity="1" data-original="#d1d3d4"></path><path fill="#414042" d="m141.678 180.592 13.788-3.695 4.964-13.539-13.789 3.695zM169.357 173.175l13.789-3.694 4.963-13.539-13.788 3.694zM113.998 188.009l13.789-3.695 4.963-13.539-13.788 3.695z" opacity="1" data-original="#414042"></path></g></svg>